<svg xmlns="http://www.w3.org/2000/svg" width="24" height="24" viewBox="0 0 24 24">
<path fill="#424242" d="M14.66 1.53L15.91 1.92L17.08 2.46L18.17 3.13L19.18 3.92L20.08 4.83L20.87 5.83L21.54 6.92L22.08 8.1L22.48 9.34L22.72 10.64L22.81 12L22.72 13.35L22.48 14.66L22.08 15.9L21.54 17.07L20.87 18.17L20.08 19.17L19.18 20.07L18.17 20.86L17.08 21.53L15.91 22.07L14.66 22.47L13.36 22.72L12.01 22.8L10.65 22.72L9.35 22.47L8.1 22.07L6.93 21.53L5.84 20.86L4.83 20.07L3.93 19.17L3.14 18.17L2.47 17.07L1.93 15.9L1.53 14.66L1.29 13.35L1.2 12L1.29 10.64L1.53 9.34L1.93 8.1L2.47 6.92L3.14 5.83L3.93 4.83L4.83 3.92L5.84 3.13L6.93 2.46L8.1 1.92L9.35 1.53L10.65 1.28L12.01 1.2L13.36 1.28L14.66 1.53ZM7.42 14.87L12.01 10.29L16.6 14.87L18.01 13.46L12.01 7.46L6.01 13.46L7.42 14.87Z"/>
</svg>